<?xml version="1.0" standalone="no"?><!DOCTYPE svg PUBLIC "-//W3C//DTD SVG 1.1//EN" "http://www.w3.org/Graphics/SVG/1.1/DTD/svg11.dtd"><svg t="1555981199707" class="icon" style="" viewBox="0 0 1024 1024" version="1.1" xmlns="http://www.w3.org/2000/svg" p-id="1475" xmlns:xlink="http://www.w3.org/1999/xlink" width="200" height="200"><defs><style type="text/css"></style></defs><path d="M358.6 555.9H631c20.3 0 36.7 16.4 36.7 36.7v201.3H321.9V592.5c0-20.2 16.5-36.6 36.7-36.6z" fill="#FFD45A" p-id="1476"></path><path d="M769.8 290.7H539.1l55.8-55.8c7.2-7.1 7.2-18.7 0-25.9-7.1-7.2-18.7-7.2-25.9 0l-74.2 74.2-74.2-74.2c-7.1-7.2-18.7-7.2-25.9 0-7.2 7.1-7.2 18.7 0 25.9l55.8 55.8H219.8c-30.3 0-55 24.7-55 55v78.9c0 26.4 18.7 48.5 43.6 53.8v250.9c0 50.6 41.2 91.7 91.7 91.7h389.4c50.6 0 91.7-41.1 91.6-91.6v-251c24.9-5.2 43.7-27.4 43.7-53.8v-78.9c0-30.3-24.7-55-55-55zM201.5 424.6v-78.9c0-10.1 8.2-18.3 18.3-18.3h256.7v115.5H219.8c-10.1 0-18.3-8.2-18.3-18.3z m43.6 304.8V479.6h231.4v304.8H300.1c-30.3 0-55-24.7-55-55z m499.4 0c0 30.3-24.7 55-55 55H513.1V479.6h231.4v249.8z m43.6-304.8c0 10.1-8.2 18.3-18.3 18.3H513.1V327.4h256.7c10.1 0 18.3 8.2 18.3 18.3v78.9z" fill="#593A25" p-id="1477"></path></svg>